<svg height="511pt" viewBox="0 -46 511.99723 511" width="511pt" xmlns="http://www.w3.org/2000/svg"><path d="m53.332031 210.863281c-17.148437-9.734375-38.941406-3.726562-48.675781 13.421875-9.738281 17.148438-3.726562 38.941406 13.417969 48.675782 17.148437 9.734374 38.941406 3.726562 48.675781-13.421876 9.738281-17.144531 3.726562-38.9375-13.417969-48.675781zm0 0"/><path d="m269.84375 251.800781c-8.613281-5.753906-20.15625-4.246093-27.003906 3.527344l-32.207032 36.585937-75.980468-43.140624 45.710937-12.664063c9-2.492187 14.375-11.707031 12.113281-20.773437l-19.191406-76.90625c-2.304687-9.230469-11.660156-14.847657-20.886718-12.542969-9.230469 2.304687-14.847657 11.652343-12.542969 20.886719l15.128906 60.617187-46.09375 12.765625c-4.394531 1.21875-8.128906 4.128906-10.382813 8.097656-4.035156 7.109375-40.117187 70.660156-45.054687 79.351563-2.273437 4.007812-2.847656 8.761719-1.59375 13.195312l16.96875 59.972657c2.09375 7.40625 8.851563 12.523437 16.546875 12.535156l77.226562.125h.027344c8.207032 0 15.066406-5.75 16.796875-13.441406l14.445313 8.5c5.492187 3.234374 11.753906 4.941406 18.128906 4.941406h55.066406c.492188-3.289063 1.449219-6.5625 2.917969-9.730469l14.679687-31.617187h-66.316406l43.570313-55.851563 37.15625 24.828125 15.296875-32.945312c.769531-1.65625 1.679687-3.242188 2.691406-4.761719zm-171.402344 107.074219-8.617187-30.453125 53.035156 30.523437zm0 0"/><path d="m363.085938 352.085938-19.199219 41.34375h48.890625c-1.226563-4.386719-1.898438-9.007813-1.898438-13.78125 0-10.144532 2.976563-19.601563 8.085938-27.566407h-35.878906zm0 0"/><path d="m506.957031 151.574219-48.335937-53.492188c-5.328125-5.898437-12.910156-9.265625-20.859375-9.265625h-47.621094c-13.992187.222656-25.160156 12.292969-24.949219 26.289063l1.007813 66.894531 18.292969-12.792969 11.824218-26.335937-5.914062 36.777344-54.195313 37.910156c-7.84375 5.484375-9.984375 16.542968-4.320312 24.257812 5.46875 7.445313 15.882812 9.152344 23.449219 3.863282l60.457031-42.289063c3.769531-2.636719 6.308593-6.691406 7.039062-11.234375l7.058594-43.882812 4.734375 45.78125c1.328125 12.824218-10.335938 17.460937-11.988281 19.125l-68.398438 46.195312-24.304687 30.347656c-1.074219 1.339844-1.984375 2.804688-2.707032 4.363282l-44.386718 95.585937c-4.976563 10.714844-.324219 23.433594 10.390625 28.40625 10.714843 4.976563 23.433593.324219 28.40625-10.390625l43.300781-93.238281 50.546875-63.113281 4.613281-.074219-7.949218 66.71875c-.644532 5.378906.78125 10.796875 3.976562 15.167969l1.234375 1.679687c7.332031-4.0625 15.761719-6.382813 24.722656-6.382813 11.964844 0 22.972657 4.136719 31.699219 11.039063l-18.160156-24.808594 8.234375-69.105469-2.171875-92.867187 15.785156 17.070313v53.5625c0 9.53125 7.800781 17.625 17.328125 17.445312 9.242187-.171875 16.679687-7.71875 16.679687-17v-60.664062c0-4.277344-1.613281-8.398438-4.519531-11.542969zm0 0"/><path d="m442.988281 37.4375c-.324219-20.726562-17.390625-37.261719-38.117187-36.933594-20.722656.328125-37.257813 17.394532-36.933594 38.117188.328125 20.726562 17.394531 37.261718 38.121094 36.933594 20.722656-.328126 37.257812-17.394532 36.929687-38.117188zm0 0"/><path d="m507.867188 386.046875-17.859376-24.394531c2.113282 5.601562 3.273438 11.664062 3.273438 17.996094 0 14.210937-5.820312 27.082031-15.203125 36.367187 7.378906 5.335937 17.542969 5.5 25.164063-.078125 9.53125-6.976562 11.601562-20.359375 4.625-29.890625zm0 0"/><path d="m478.257812 379.648438c0 19.980468-16.199218 36.175781-36.175781 36.175781-19.980469 0-36.179687-16.195313-36.179687-36.175781 0-19.980469 16.199218-36.175782 36.179687-36.175782 19.976563 0 36.175781 16.195313 36.175781 36.175782zm0 0"/></svg>