<svg height="512pt" viewBox="0 -49 512.00093 512" width="512pt" xmlns="http://www.w3.org/2000/svg"><path d="m460.988281 194.023438c-25.765625 0-49.351562-15.128907-60.097656-38.535157-5.105469-11.128906-7.179687-23.746093-5.421875-36.476562l-67.078125-17.949219-78.363281-59.925781c-10.335938-7.90625-25.121094-5.933594-33.023438 4.402343-7.90625 10.335938-5.933594 25.125 4.402344 33.027344l82.070312 62.761719c2.449219 1.875 5.246094 3.25 8.222657 4.046875l54.085937 14.46875-77.226562 35.507812-108.074219-70.078124c-1.320313-.855469-2.707031-1.605469-4.144531-2.242188l-38.085938-16.847656c-3.613281 1.925781-7.453125 3.542968-11.515625 4.78125-20.050781 6.125-40.992187 1.953125-56.804687-9.570313-12.296875-8.960937-20.777344-21.640625-24.492188-36.277343l-3.109375-1.375c-14.8125-6.554688-32.476562-.480469-39.433593 14.148437-7.21875 15.175781-.460938 33.21875 14.808593 39.976563l132.414063 58.585937 116.878906 75.785156 11.890625 25.902344-75.675781 77.339844h-136.035156c-16.199219 0-29.890626 12.699219-30.335938 28.894531-.460938 16.800781 13.023438 30.566406 29.71875 30.566406h149.15625c8 0 15.660156-3.222656 21.25-8.941406l77.4375-79.136719 47.421875-21.804687-13.054687-9.664063c-17.023438-12.605469-20.964844-37.09375-8.035157-53.875 12.527344-16.265625 35.828125-19.566406 52.402344-7.296875 12.800781 9.480469 38.796875 28.726563 49.371094 36.558594l-1.839844 16.332031-55.996094-41.460937c-10.457031-7.742188-25.210937-5.542969-32.953125 4.914062-7.742187 10.457032-5.542968 25.210938 4.914063 32.953125l88.855469 65.789063c6.664062 4.9375 15.582031 6.082031 23.421874 2.667968 7.722657-3.363281 13.066407-10.59375 14.007813-18.964843.816406-7.28125 6.046875-53.894531 10.234375-91.222657 1.570312-13.992187-.816406-28.144531-6.886719-40.847656l-4.863281-10.179687c-6.585938 2.160156-13.425781 3.261719-20.417969 3.261719zm0 0"/><path d="m507.285156 106.65625c-8.578125-18.699219-27.050781-29.726562-46.359375-29.726562-36.644531.003906-61.941406 38.171874-46.300781 72.253906 8.582031 18.699218 27.054688 29.726562 46.363281 29.726562 36.644531 0 61.941407-38.171875 46.296875-72.253906zm0 0"/><path d="m122.328125 96.511719c26.050781-7.957031 40.722656-35.527344 32.765625-61.582031-7.972656-26.097657-35.570312-40.710938-61.582031-32.765626-26.054688 7.957032-40.722657 35.527344-32.765625 61.582032 7.96875 26.09375 35.566406 40.710937 61.582031 32.765625zm0 0"/></svg>