<?xml version="1.0" encoding="iso-8859-1"?>
<!-- Generator: Adobe Illustrator 16.0.0, SVG Export Plug-In . SVG Version: 6.00 Build 0)  -->
<!DOCTYPE svg PUBLIC "-//W3C//DTD SVG 1.1//EN" "http://www.w3.org/Graphics/SVG/1.1/DTD/svg11.dtd">
<svg version="1.1" id="Capa_1" xmlns="http://www.w3.org/2000/svg" xmlns:xlink="http://www.w3.org/1999/xlink" x="0px" y="0px"
	 width="98.254px" height="98.254px" viewBox="0 0 98.254 98.254" style="enable-background:new 0 0 98.254 98.254;"
	 xml:space="preserve">
<g>
	<path d="M95.893,84.496l-32.481-32.48c-1.93-1.93-4.591-2.672-7.088-2.235c9.044-12.216,8.036-29.584-3.027-40.647
		C41.12-3.043,21.308-3.043,9.132,9.133s-12.176,31.987,0,44.162c11.063,11.064,28.432,12.072,40.646,3.03
		c-0.435,2.497,0.308,5.157,2.235,7.086l32.483,32.481c3.146,3.146,8.25,3.147,11.396,0.001
		C99.041,92.745,99.04,87.644,95.893,84.496z M45.603,45.604c-7.934,7.935-20.843,7.934-28.776,0
		c-7.936-7.935-7.936-20.845,0-28.777c7.934-7.935,20.843-7.935,28.776,0C53.538,24.758,53.538,37.669,45.603,45.604z"/>
</g>
<g>
</g>
<g>
</g>
<g>
</g>
<g>
</g>
<g>
</g>
<g>
</g>
<g>
</g>
<g>
</g>
<g>
</g>
<g>
</g>
<g>
</g>
<g>
</g>
<g>
</g>
<g>
</g>
<g>
</g>
</svg>
