<svg height="512pt" viewBox="-80 0 512 512.00447" width="512pt" xmlns="http://www.w3.org/2000/svg"><path d="m257.476562 4.171875c-24.71875-10.917969-53.605468.269531-64.523437 24.988281-10.914063 24.71875.273437 53.605469 24.992187 64.523438 24.71875 10.914062 53.605469-.273438 64.519532-24.992188 10.917968-24.71875-.273438-53.605468-24.988282-64.519531zm0 0"/><path d="m122.820312 355.304688-.78125 15.65625-65.015624 98.902343c-8.25 12.550781-4.761719 29.417969 7.789062 37.667969 12.527344 8.234375 29.398438 4.789062 37.664062-7.789062l56.589844-86.085938-13.964844-26.550781zm0 0"/><path d="m254.335938 442.066406-46.324219-88.058594c-1.445313-2.746093-3.351563-5.226562-5.632813-7.332031l-42.1875-38.910156 19.199219 8.480469 25.160156-56.96875-12.769531-6.28125c-2.128906-1.664063-20.136719-6.085938-21.167969-25.230469l-4.003906-77.746094 21.128906 72.773438c1.800781 6.199219 6.125 11.351562 11.917969 14.203125l83.816406 41.238281c11.308594 5.566406 25.109375.984375 30.742188-10.464844 5.601562-11.378906.914062-25.144531-10.464844-30.742187l-74.726562-36.769532-18.304688-63.042968 26.683594 47.292968.140625.070313 10.355469-23.445313c7.375-16.699218-.183594-36.210937-16.878907-43.585937l-53.914062-23.8125c-14.613281-6.453125-31.378907-1.46875-40.28125 11.066406l-58.730469 4.890625c-6.429688.535156-12.339844 3.753906-16.28125 8.863282l-57.03125 73.984374c-7.746094 10.042969-5.878906 24.464844 4.164062 32.207032 10.066407 7.757812 24.484376 5.855468 32.207032-4.167969l50.847656-65.960937 22.929688-1.90625-49.828126 112.820312c-6.082031 10.742188-4.226562 24.636719 5.242188 33.367188 20.132812 18.570312 70.851562 65.347656 91.714844 84.585937l59.957031 113.976563c6.984375 13.273437 23.421875 18.414062 36.734375 11.410156 1.882812-.992188 3.597656-2.175782 5.140625-3.511719-9.136719-10.476563-14.691406-24.160156-14.691406-39.121094 0-8.601562 1.84375-16.777343 5.136719-24.171875zm0 0"/><path d="m351.675781 469.136719c0 23.675781-19.191406 42.867187-42.867187 42.867187-23.675782 0-42.867188-19.191406-42.867188-42.867187s19.191406-42.867188 42.867188-42.867188c23.675781 0 42.867187 19.191407 42.867187 42.867188zm0 0"/></svg>