<svg height="512pt" viewBox="-12 0 512 512.00081" width="512pt" xmlns="http://www.w3.org/2000/svg"><path d="m258.472656 116.855469c-11.316406-19.105469-35.976562-25.417969-55.082031-14.105469-19.105469 11.316406-25.417969 35.976562-14.101563 55.082031 11.3125 19.105469 35.972657 25.421875 55.078126 14.105469 19.105468-11.316406 25.421874-35.976562 14.105468-55.082031zm0 0"/><path d="m484.628906 476.855469c-4.945312-8.320313-156.792968-263.949219-168.703125-283.992188.109375-.28125.226563-.558593.324219-.851562l28.144531-84.820313c1.410157-4.242187 1.308594-8.84375-.285156-13.019531l-31.144531-81.679687c-3.820313-10.007813-15.027344-15.03125-25.039063-11.214844-10.011719 3.820312-15.03125 15.027344-11.214843 25.039062l28.683593 75.21875-24.664062 74.328125c-.085938.046875-.175781.085938-.257813.132813l-51.152344 30.300781-77.882812-24.1875-44.199219-32.976563c-1.984375 10.390626-6.597656 20.152344-13.605469 28.457032-1.71875 2.03125-3.5625 3.925781-5.496093 5.699218l42.769531 31.910157c1.765625 1.316406 3.742188 2.324219 5.847656 2.976562 94.742188 29.359375 89.132813 27.820313 91.476563 28.257813l58.484375 98.738281-29.980469 67.074219c-4.566406 10.214844-1.21875 22.234375 7.96875 28.617187l87.855469 61.042969c10.574218 7.351562 25.078125 4.707031 32.398437-5.832031 7.339844-10.558594 4.726563-25.066407-5.832031-32.402344l-72.011719-50.035156 29.113281-65.144531 13.519532-8.007813 94.824218 160.097656c6.574219 11.101563 20.863282 14.695313 31.890626 8.164063 11.0625-6.550782 14.71875-20.828125 8.167968-31.890625zm0 0"/><path d="m75.625 102.21875c-19.476562-16.449219-48.464844-13.851562-64.777344 5.464844-16.378906 19.394531-13.933594 48.394531 5.464844 64.777344 19.46875 16.441406 48.460938 13.859374 64.777344-5.464844 16.378906-19.394532 13.933594-48.398438-5.464844-64.777344zm0 0"/></svg>